<svg xmlns="http://www.w3.org/2000/svg" viewBox="0 0 100 100">
  <rect width="100" height="100" fill="#00247d"/>
  <polygon points="0,0 100,100 100,90 10,0" fill="#fff"/>
  <polygon points="100,0 0,100 0,90 90,0" fill="#fff"/>
  <rect x="40" width="20" height="100" fill="#fff"/>
  <rect y="40" width="100" height="20" fill="#fff"/>
  <polygon points="0,0 45,50 0,100 10,100 55,55 100,100 100,90 60,50 100,10 100,0 90,0 50,40 10,0" fill="#cf142b"/>
  <polygon points="100,0 55,50 100,100 90,100 45,55 0,100 0,90 40,50 0,10 0,0 10,0 50,40 90,0" fill="#cf142b"/>
  <rect x="45" width="10" height="100" fill="#cf142b"/>
  <rect y="45" width="100" height="10" fill="#cf142b"/>
</svg> 